<svg xmlns="http://www.w3.org/2000/svg" xmlns:xlink="http://www.w3.org/1999/xlink" width="198.399" height="25.789" viewBox="0 0 148.799 19.342"><symbol id="a"><path d="M.592.681H0V.638h.106V.043H0V0c.029.002.143.002.18.002.053 0 .142 0 .191-.002v.043H.238v.276h.055C.389.319.397.275.397.202h.042v.277H.397C.397.406.389.362.293.362H.238v.276h.143C.54.638.565.565.579.444h.042L.592.681z"/></symbol><symbol id="b"><path d="M.72.352C.72.564.582.71.36.71.137.71 0 .563 0 .352S.14 0 .36 0c.22 0 .36.141.36.352M.36.038a.199.199 0 0 0-.166.088.438.438 0 0 0-.053.24c0 .061.003.145.044.213.044.07.116.095.175.095A.202.202 0 0 0 .53.586C.567.528.579.466.579.366.579.267.568.184.518.115A.198.198 0 0 0 .36.038z"/></symbol><symbol id="c"><path d="M.491.352C.626.388.659.46.659.514c0 .1-.105.184-.29.184H0V.655h.106v-.6H0V.012c.029.002.133.002.169.002.036 0 .141 0 .17-.002v.043H.233v.284h.119c.04 0 .072-.012.094-.038.03-.034.03-.056.03-.123s0-.108.051-.142A.308.308 0 0 1 .683 0c.102 0 .114.09.114.104 0 .017-.008.02-.021.02-.019 0-.02-.007-.021-.02C.75.054.719.033.691.033.627.033.62.1.612.192.606.245.599.319.491.352M.35.372H.233v.283h.119C.515.655.518.573.518.514.518.459.517.372.35.372z"/></symbol><symbol id="d"><path d="m.492.127-.24.538C.243.686.234.686.213.686H0V.643h.106v-.57C.106.051.105.05.079.046A.525.525 0 0 0 .023.043H0V0c.023.002.101.002.129.002.028 0 .107 0 .13-.002v.043H.236c-.027 0-.029 0-.053.003C.154.05.153.051.153.073v.558h.001l.272-.61C.431.01.437 0 .454 0s.023.01.028.021l.277.622H.76v-.6H.654V0c.027.002.131.002.165.002S.957.002.984 0v.043H.878v.6h.106v.043H.771c-.021 0-.03 0-.039-.021L.492.127z"/></symbol><symbol id="e"><path d="M.419.677C.412.695.41.7.386.7.361.7.359.695.352.677L.104.067C.097.051.097.049.069.046.044.043.04.043.018.043H0V0c.026.002.086.002.115.002.027 0 .1 0 .123-.002v.043c-.022 0-.06 0-.088.011l.005.015.053.13h.268L.539.043H.445V0c.032.002.129.002.167.002.032 0 .134 0 .159-.002v.043H.676L.419.677M.342.53.458.242H.225L.342.53z"/></symbol><symbol id="f"><path d="M.687.684c0 .023 0 .026-.022.026L.59.638A.296.296 0 0 1 .393.71C.154.71 0 .565 0 .355 0 .149.149 0 .394 0c.178 0 .293.122.293.24 0 .017-.006.018-.021.018-.01 0-.02 0-.021-.011C.636.095.507.043.417.043.352.043.264.061.208.124.173.162.141.217.141.355c0 .098.015.171.062.227.064.075.164.085.212.085C.49.667.611.625.641.449.643.44.652.44.664.44c.023 0 .023.002.023.026v.218z"/></symbol><symbol id="g"><path d="M.244.643h.112v.043C.32.684.22.684.178.684c-.042 0-.142 0-.178.002V.643h.112v-.6H0V0c.036.002.136.002.178.002C.22.002.32.002.356 0v.043H.244v.6z"/></symbol><symbol id="h"><path d="M.178.084c.013.007.036.02.036.049 0 .03-.028.06-.058.06C.133.193.119.176.113.169L0 .033.027 0l.151.084z"/></symbol><symbol id="i"><path d="M.252.674C.242.685.241.686.221.686H0V.643h.106v-.57C.106.051.105.05.079.046A.525.525 0 0 0 .023.043H0V0c.023.002.101.002.129.002.028 0 .107 0 .13-.002v.043H.236c-.027 0-.029 0-.053.003C.154.05.153.051.153.073v.536L.648.013C.659.001.66 0 .673 0c.024 0 .024.006.024.029v.584c0 .022.001.023.027.027A.525.525 0 0 0 .78.643h.023v.043C.78.684.702.684.674.684c-.028 0-.107 0-.13.002V.643h.023C.594.643.596.643.62.64.649.636.65.635.65.613V.195L.252.674z"/></symbol><use xlink:href="#a" transform="matrix(20.6625 0 0 -20.6625 .785 19.342)" fill="#fff"/><use xlink:href="#b" transform="matrix(20.6625 0 0 -20.6625 15.249 19.59)" fill="#fff"/><use xlink:href="#c" transform="matrix(20.6625 0 0 -20.6625 32.213 19.59)" fill="#fff"/><use xlink:href="#d" transform="matrix(20.6625 0 0 -20.6625 49.61 19.342)" fill="#fff"/><use xlink:href="#e" transform="matrix(20.6625 0 0 -20.6625 71.616 19.342)" fill="#fff"/><use xlink:href="#f" transform="matrix(20.6625 0 0 -20.6625 89.014 19.59)" fill="#fff"/><use xlink:href="#g" transform="matrix(20.6625 0 0 -20.6625 105.172 19.342)" fill="#fff"/><use xlink:href="#h" transform="matrix(20.6625 0 0 -20.6625 120.897 3.79)" fill="#fff"/><use xlink:href="#b" transform="matrix(20.6625 0 0 -20.6625 114.447 19.59)" fill="#fff"/><use xlink:href="#i" transform="matrix(20.6625 0 0 -20.6625 131.411 19.342)" fill="#fff"/></svg>